# xmcd
#
# Track frame offsets: 
#        150
#        19323
#        38046
#        57825
#        71583
#        86957
#        106734
#        119329
#        133683
#        151690
#        169758
#        184736
#        202240
#        222246
#        240937
#        259145
#        276773
#        293635
#        311402
#        327079
#        343083
#
# Disc length: 4778 seconds
#
# Revision: 0
# Processed by: cddbd v1.5.1PL2 Copyright (c) Steve Scherf et al.
# Submitted via: ExactAudioCopy v0.95b2
#
DISCID=3212a815
DTITLE=Долина Лариса - Лучшее
DYEAR=1900
DGENRE=Pop
TTITLE0=Погода В Доме
TTITLE1=Лето
TTITLE2=Посмотри Мне В Глаза
TTITLE3=Три Розы
TTITLE4=Ресторан
TTITLE5=Льдинка
TTITLE6=Ненаглядный Мой
TTITLE7=Певица И Музыкант
TTITLE8=Острова Любви
TTITLE9=Грустная История
TTITLE10=Обижаюсь
TTITLE11=Все Было Хорошо
TTITLE12=Телефонная Книжка
TTITLE13=Зеркало Души
TTITLE14=Првое Свидание
TTITLE15=Прощай
TTITLE16=Ты Снишься Мне
TTITLE17=Хочу Быть Любимой
TTITLE18=Романс
TTITLE19=Погода В Доме Переменчива
TTITLE20=До Свидания
EXTD=
EXTT0=
EXTT1=
EXTT2=
EXTT3=
EXTT4=
EXTT5=
EXTT6=
EXTT7=
EXTT8=
EXTT9=
EXTT10=
EXTT11=
EXTT12=
EXTT13=
EXTT14=
EXTT15=
EXTT16=
EXTT17=
EXTT18=
EXTT19=
EXTT20=
PLAYORDER=
